<svg xmlns="http://www.w3.org/2000/svg" width="848" height="210" viewBox="0 0 848 210" fill="none"><g clip-path="url(#clip0_8682_4595)"><mask id="mask0_8682_4595" style="mask-type:luminance" maskUnits="userSpaceOnUse" x="0" y="0" width="848" height="210"><path d="M847.09 0H0.5V209.35H847.09V0Z" fill="white"></path></mask><g mask="url(#mask0_8682_4595)"><path d="M367.69 96.1593V138.969H349.76V97.4093C349.76 89.2093 345.59 84.1993 338.08 84.1993C330.16 84.1993 325.15 89.4793 325.15 99.9093V138.969H307.22V97.4093C307.22 89.2093 303.05 84.1993 295.54 84.1993C287.89 84.1993 282.47 89.4793 282.47 99.9093V138.969H264.54V69.4693H282.47V76.8393C286.36 70.9993 292.9 67.5293 301.79 67.5293C310.41 67.5293 316.8 71.1393 320.69 77.5393C325 71.2893 331.95 67.5293 341.4 67.5293C357.27 67.5193 367.69 78.7793 367.69 96.1593Z" fill="#282828"></path><path d="M445.95 69.4707L420.65 138.971C413.42 158.991 401.61 167.741 383.95 166.771V150.091C393.82 150.231 398.82 146.061 402.16 136.751L373.66 69.4707H393.26L411.33 116.181L426.76 69.4707H445.95Z" fill="#282828"></path><path d="M539.79 104.22C539.79 124.93 524.5 140.92 505.87 140.92C495.72 140.92 488.36 137.17 483.35 130.77V166.77H465.42V69.4695H483.35V77.6695C488.35 71.2795 495.72 67.5195 505.87 67.5195C524.5 67.5195 539.79 83.5095 539.79 104.22ZM521.86 104.22C521.86 92.5395 513.66 84.6195 502.54 84.6195C491.56 84.6195 483.36 92.5395 483.36 104.22C483.36 115.9 491.56 123.82 502.54 123.82C513.66 123.82 521.86 115.9 521.86 104.22Z" fill="#282828"></path><path d="M574.96 86.7098V115.62C574.96 123.13 580.38 123.27 590.67 122.71V138.97C565.51 141.75 557.03 134.38 557.03 115.62V86.7098H544.94V69.4698H557.03V55.4298L574.96 50.0098V69.4698H590.67V86.7098H574.96Z" fill="#282828"></path><path d="M681.23 96.2999V138.98H663.3V98.5199C663.3 89.0699 657.6 84.1999 649.54 84.1999C640.78 84.1999 634.25 89.3399 634.25 101.44V138.97H616.32V41.6699H634.25V77.2599C638.42 71.0099 645.65 67.5299 654.96 67.5299C669.69 67.5199 681.23 77.8099 681.23 96.2999Z" fill="#282828"></path><path d="M758.32 69.4707V138.971H740.39V131.191C736.22 137.441 728.99 140.921 719.68 140.921C704.95 140.921 693.41 130.631 693.41 112.151V69.4707H711.34V109.921C711.34 119.371 717.04 124.241 725.1 124.241C733.86 124.241 740.39 119.101 740.39 107.001V69.4707H758.32Z" fill="#282828"></path><path d="M847.09 104.22C847.09 124.93 831.8 140.92 813.17 140.92C803.02 140.92 795.66 137.17 790.65 130.77V138.97H772.72V41.6699H790.65V77.6699C795.65 71.2799 803.02 67.5199 813.17 67.5199C831.8 67.5199 847.09 83.5099 847.09 104.22ZM829.16 104.22C829.16 92.5399 820.96 84.6199 809.84 84.6199C798.86 84.6199 790.66 92.5399 790.66 104.22C790.66 115.9 798.86 123.82 809.84 123.82C820.95 123.82 829.16 115.9 829.16 104.22Z" fill="#282828"></path><path fill-rule="evenodd" clip-rule="evenodd" d="M105.5 -1L0.5 104H105.5V131.881L210.48 104.005L105.5 131.945V209L210.5 104L105.5 -1Z" fill="url(#paint0_linear_8682_4595)"></path><path fill-rule="evenodd" clip-rule="evenodd" d="M210.5 104H105.5V131.881L210.5 104Z" fill="black" fill-opacity="0.2"></path><path fill-rule="evenodd" clip-rule="evenodd" d="M143.499 196.505C140.465 196.505 138.004 198.966 138.004 202C138.004 205.035 140.465 207.495 143.499 207.495C146.534 207.495 148.994 205.035 148.994 202C148.994 198.966 146.534 196.505 143.499 196.505ZM136.604 202C136.604 198.192 139.691 195.105 143.499 195.105C147.307 195.105 150.394 198.192 150.394 202C150.394 205.808 147.307 208.895 143.499 208.895C139.691 208.895 136.604 205.808 136.604 202Z" fill="black"></path><path d="M143.122 201.44C143.507 201.44 143.787 201.363 143.955 201.216C144.123 201.076 144.214 200.838 144.214 200.502C144.214 200.173 144.123 199.942 143.955 199.795C143.787 199.655 143.507 199.585 143.122 199.585H142.338V201.44H143.122ZM142.338 202.721V205.451H140.476V198.234H143.318C144.27 198.234 144.963 198.395 145.404 198.717C145.852 199.032 146.069 199.536 146.069 200.229C146.069 200.705 145.957 201.097 145.726 201.405C145.495 201.706 145.152 201.937 144.683 202.077C144.942 202.14 145.166 202.273 145.369 202.476C145.572 202.679 145.775 202.987 145.978 203.407L146.993 205.451H145.012L144.13 203.659C143.955 203.302 143.773 203.05 143.591 202.924C143.409 202.791 143.164 202.721 142.863 202.721H142.338Z" fill="black"></path></g></g><defs><linearGradient id="paint0_linear_8682_4595" x1="210.5" y1="-1.00002" x2="-26.4582" y2="172.096" gradientUnits="userSpaceOnUse"><stop stop-color="#00EAF8"></stop><stop offset="1" stop-color="#6D42EF"></stop></linearGradient><clipPath id="clip0_8682_4595"><rect width="847" height="210" fill="white" transform="translate(0.5)"></rect></clipPath></defs></svg>